PathFileType  4	(X/Y/Z) C:\Users\antoi\Documents\MyRepositories\mobilecap\ResultsAnalysis
DataRate	CameraRate	NumFrames	NumMarkers	Units	OrigDataRate	OrigDataStartFrame	OrigNumFrames
100.0	100.0	4	55	mm	100.0	1	679
Frame#	Time	r_knee			r_shank_antsup			r_ankle			r_calc			r_5meta			r_toe			L_knee			L_shank_antsup			L_ankle			L_calc			L_5meta			L_toe			r_mknee			r_mankle			L_mknee			L_mankle			r_sh2			r_sh3			r_sh4			L_sh2			L_sh3			r_thigh1			r_thigh2			r_thigh3			r_thigh4			r_thigh5			L_thigh1			L_thigh2			L_thigh3			L_thigh4			r.ASIS			r.PSIS			L.ASIS			L.PSIS			C7			R_Shoulder			L_Shoulder			R_Sternum			L_Sternum			R_humerus			R_elbow_med			R_elbow_lat			R_forearm			R_wrist_radius			R_wrist_ulna			L_humerus			L_elbow_med			L_elbow_lat			L_forearm			L_wrist_radius			L_wrist_ulna			R_HJC			L_HJC			R_HJC_reg			L_HJC_reg			
		X1	Y1	Z1	X2	Y2	Z2	X3	Y3	Z3	X4	Y4	Z4	X5	Y5	Z5	X6	Y6	Z6	X7	Y7	Z7	X8	Y8	Z8	X9	Y9	Z9	X10	Y10	Z10	X11	Y11	Z11	X12	Y12	Z12	X13	Y13	Z13	X14	Y14	Z14	X15	Y15	Z15	X16	Y16	Z16	X17	Y17	Z17	X18	Y18	Z18	X19	Y19	Z19	X20	Y20	Z20	X21	Y21	Z21	X22	Y22	Z22	X23	Y23	Z23	X24	Y24	Z24	X25	Y25	Z25	X26	Y26	Z26	X27	Y27	Z27	X28	Y28	Z28	X29	Y29	Z29	X30	Y30	Z30	X31	Y31	Z31	X32	Y32	Z32	X33	Y33	Z33	X34	Y34	Z34	X35	Y35	Z35	X36	Y36	Z36	X37	Y37	Z37	X38	Y38	Z38	X39	Y39	Z39	X40	Y40	Z40	X41	Y41	Z41	X42	Y42	Z42	X43	Y43	Z43	X44	Y44	Z44	X45	Y45	Z45	X46	Y46	Z46	X47	Y47	Z47	X48	Y48	Z48	X49	Y49	Z49	X50	Y50	Z50	X51	Y51	Z51	X52	Y52	Z52	X53	Y53	Z53	X54	Y54	Z54	X55	Y55	Z55	

1	0.00000000	-219.93825	473.81108	-433.74126	-189.03151	364.91775	-448.99130	-256.49329	89.90718	-466.10609	-302.51694	52.03509	-517.43673	-141.72311	39.86459	-434.82755	-105.50150	58.69808	-476.83710	-214.60756	475.47400	-786.47746	-179.94077	374.98419	-747.32256	-256.29694	88.24716	-770.84021	-296.38666	51.52052	-719.72931	-134.19365	36.62739	-789.17533	-94.74504	58.39427	-736.01174	-238.62645	474.30887	-566.64368	-231.19083	108.05225	-544.06152	-223.18535	473.96990	-655.15295	-226.71306	103.63312	-689.90284	-199.02188	253.65976	-459.82700	-244.30769	362.86610	-396.91116	-268.74808	254.66483	-418.03110	-234.38812	398.55978	-815.67284	-245.75461	277.51713	-826.59241	-122.36391	776.41199	-452.17203	-122.91420	665.44072	-447.89007	-166.77080	641.55568	-403.69513	-224.64442	775.03403	-403.62930	-219.47517	659.47670	-398.87053	-128.65503	767.24945	-783.67120	-124.47487	628.51094	-782.46424	-234.46684	769.38533	-822.92969	-231.66552	628.51137	-815.58948	-112.10490	939.16570	-485.62220	-291.33575	989.15132	-560.67499	-99.75913	937.98994	-731.64527	-289.24982	988.29693	-676.31597	-289.07530	1435.32996	-620.14971	-234.53279	1408.03784	-464.10426	-228.76167	1414.03137	-777.50043	-162.76756	1399.46791	-603.27618	-160.20699	1396.19070	-642.60761	-202.84900	1280.96177	-402.28470	-254.57198	1080.44080	-457.55902	-228.40523	1086.23010	-387.18514	-166.50604	976.71299	-369.78602	-124.67439	880.11182	-373.59413	-155.97328	869.43811	-356.93897	-195.00472	1262.36733	-836.56288	-242.17907	1071.43139	-772.39594	-225.83644	1077.11609	-844.57428	-169.19902	995.96765	-861.59315	-119.90546	873.02587	-846.97657	-145.99779	865.09369	-865.80116	-203.44144	871.08028	-515.05574	-191.10349	866.58702	-703.97776	-184.12499	872.60750	-520.94925	-181.19291	871.40652	-683.49976	
2	0.01000000	-219.94227	473.79394	-433.74450	-189.05319	364.91672	-449.01358	-256.55742	89.88033	-466.25335	-302.49663	52.07850	-517.40616	-141.71764	39.88411	-434.84857	-105.51814	58.67446	-476.84325	-214.62554	475.49288	-786.53164	-179.96587	374.99018	-747.36099	-256.29807	88.24916	-770.83817	-295.90056	50.69391	-719.07633	-134.14132	36.55398	-789.14368	-94.75906	58.35431	-736.03041	-238.63496	474.31582	-566.65026	-231.18677	108.05010	-544.06362	-223.18496	473.97975	-655.16989	-226.70633	103.62929	-689.91091	-198.98809	253.68207	-459.82870	-244.31786	362.86174	-396.91429	-268.73860	254.66024	-418.03771	-234.43235	398.59150	-815.67946	-245.72797	277.53221	-826.56476	-122.31455	776.50462	-452.28160	-122.90976	665.49591	-447.91373	-166.74252	641.61259	-403.66118	-224.57255	775.06208	-403.60733	-219.34308	659.51655	-398.92316	-128.66448	767.25357	-783.67691	-124.49493	628.50709	-782.44543	-234.49800	769.37676	-822.93614	-231.68844	628.50019	-815.59208	-112.10284	939.16655	-485.62339	-291.35344	989.17180	-560.67113	-99.82652	938.00988	-731.73302	-289.21279	988.30804	-676.26229	-289.11376	1435.34853	-620.14731	-234.49562	1408.02803	-464.03509	-228.77593	1414.04313	-777.42974	-162.78780	1399.51698	-603.28361	-160.26703	1396.22703	-642.62934	-202.84207	1280.91420	-402.25543	-254.60615	1080.45096	-457.54742	-228.40326	1086.24287	-387.21240	-166.50355	976.65907	-369.83603	-124.70300	880.08992	-373.64315	-155.98279	869.43583	-356.99605	-195.01649	1262.40381	-836.55466	-242.21639	1071.48186	-772.42679	-225.85715	1077.11311	-844.57874	-169.24008	995.99356	-861.62618	-119.93557	873.06262	-847.02827	-146.02549	865.13968	-865.84415	-203.43554	871.08591	-515.06967	-191.14638	866.60680	-703.99521	-184.20052	872.60270	-520.99827	-181.18923	871.38764	-683.60195	
3	0.02000000	-219.93111	473.81360	-433.76194	-189.06280	364.91650	-449.02477	-256.58301	89.94395	-466.23723	-302.49873	52.09183	-517.41775	-141.71153	39.88450	-434.85445	-105.52526	58.65959	-476.84109	-214.65029	475.50360	-786.59831	-179.98107	375.03167	-747.40399	-256.29791	88.25289	-770.84062	-295.73746	50.42422	-718.86136	-134.14112	36.52902	-789.12515	-94.75008	58.33675	-736.05539	-238.63409	474.31610	-566.64913	-231.18841	108.05040	-544.06199	-223.18886	473.98054	-655.17341	-226.70339	103.62889	-689.91627	-198.98389	253.68372	-459.80797	-244.31003	362.87218	-396.91467	-268.73152	254.65989	-418.04113	-234.44013	398.59843	-815.66968	-245.71252	277.53964	-826.54329	-122.28405	776.55364	-452.36331	-122.92567	665.49194	-447.89258	-166.72254	641.62196	-403.68441	-224.52392	775.05000	-403.63148	-219.29058	659.53235	-398.93148	-128.67383	767.25525	-783.68580	-124.54481	628.50519	-782.41002	-234.53987	769.36828	-822.94837	-231.71631	628.51042	-815.57927	-112.09014	939.17875	-485.63876	-291.37166	989.17714	-560.67228	-99.86257	938.01342	-731.76146	-289.23860	988.29425	-676.30362	-289.17974	1435.38659	-620.13919	-234.48506	1408.01315	-464.02068	-228.81234	1414.04394	-777.42563	-162.82728	1399.51979	-603.28295	-160.30922	1396.24918	-642.64869	-202.84299	1280.89558	-402.28868	-254.61426	1080.44835	-457.54954	-228.41129	1086.22851	-387.22614	-166.51817	976.62094	-369.88622	-124.73467	880.07270	-373.66446	-155.99883	869.42925	-357.03496	-195.04480	1262.41058	-836.55972	-242.23896	1071.54894	-772.48676	-225.88642	1077.13578	-844.62475	-169.28632	996.04574	-861.68005	-119.96878	873.10256	-847.12058	-146.04471	865.16286	-865.89130	-203.43541	871.09532	-515.08320	-191.16588	866.60180	-704.00967	-184.20775	872.62151	-521.00029	-181.20804	871.37993	-683.61103	
4	0.03000000	-219.91982	473.84036	-433.77712	-189.05756	364.92151	-449.03400	-256.55984	89.98283	-466.16756	-302.50315	52.08710	-517.41767	-141.70761	39.88221	-434.84312	-105.51877	58.68233	-476.85280	-214.65560	475.49854	-786.58856	-180.00961	375.04966	-747.36871	-256.28837	88.24410	-770.84061	-295.94763	50.78407	-719.14582	-134.15304	36.54253	-789.12852	-94.73492	58.34452	-736.09177	-238.63047	474.31229	-566.64493	-231.19552	108.05278	-544.05965	-223.19467	473.98142	-655.17145	-226.70344	103.63616	-689.91375	-198.99442	253.67498	-459.80304	-244.29592	362.88657	-396.91300	-268.72789	254.66468	-418.04041	-234.42943	398.57426	-815.64795	-245.70311	277.55568	-826.52896	-122.26841	776.57097	-452.42455	-122.94260	665.44968	-447.87841	-166.74020	641.60924	-403.72650	-224.51589	775.03513	-403.65459	-219.30215	659.50436	-398.92149	-128.68813	767.25402	-783.69904	-124.59467	628.51105	-782.38205	-234.58178	769.37608	-822.93162	-231.73843	628.53263	-815.55485	-112.08007	939.20157	-485.66372	-291.38875	989.16890	-560.67577	-99.89057	938.00009	-731.74862	-289.29793	988.27027	-676.37105	-289.21763	1435.41530	-620.14689	-234.49031	1407.99882	-464.03021	-228.85291	1414.04204	-777.44395	-162.87450	1399.48640	-603.30000	-160.33234	1396.25838	-642.64174	-202.84168	1280.89383	-402.34926	-254.60454	1080.43432	-457.56004	-228.42505	1086.20352	-387.23260	-166.53229	976.60144	-369.92523	-124.76142	880.04945	-373.69992	-156.02217	869.42115	-357.05762	-195.09056	1262.39551	-836.58562	-242.24559	1071.59052	-772.53497	-225.92353	1077.16195	-844.69995	-169.32511	996.08607	-861.71475	-119.98836	873.11560	-847.18231	-146.10741	865.03524	-865.86868	-203.44148	871.10752	-515.08622	-191.18072	866.58000	-704.01244	-184.17886	872.64252	-520.98127	-181.24065	871.37970	-683.56691	
